# xmcd CD database file
#
# Track frame offsets:
#	150
#	17440
#	29689
#	43878
#	54395
#	71320
#	86998
#	101383
#	116178
#	129043
#	144657
#	158612
#	177051
#
# Disc length: 2713 seconds
#
# Revision: 0
# Processed by: cddbd v1.5.2PL0 Copyright (c) Steve Scherf et al.
# Submitted via: CDex 1.51
#
DISCID=a60a970d
DTITLE=W. C. Jameson - Songs from the Long and Winding Road
DYEAR=2005
DGENRE=Country
TTITLE0=Freight Train Moan
TTITLE1=Best Way to Mexico
TTITLE2=Mississippi River, Don't You Know
TTITLE3=Texas Ruby
TTITLE4=Old Mexico
TTITLE5=Chickasaw Hill
TTITLE6=Forgettin' 'bout You
TTITLE7=Play Your Songs, Texas Boy
TTITLE8=Loneliest Star in Texas
TTITLE9=Love Songs in Spanish
TTITLE10=One Last Dance
TTITLE11=Let Me Sing You Some Blues
TTITLE12=Midnight Train
EXTD=YEAR: 2005
EXTT0=
EXTT1=
EXTT2=
EXTT3=
EXTT4=
EXTT5=
EXTT6=
EXTT7=
EXTT8=
EXTT9=
EXTT10=
EXTT11=
EXTT12=
PLAYORDER=
